<svg width="48" height="48" viewBox="0 0 48 48" fill="none" xmlns="http://www.w3.org/2000/svg">
<rect width="48" height="48" rx="24" fill="#EAEAEA"/>
<path d="M22.8936 29.5117C22.8935 30.6222 22.6971 31.5947 22.3047 32.4297C21.9206 33.273 21.3738 33.9245 20.6641 34.3838C19.9627 34.8514 19.1398 35.085 18.1963 35.085C17.2529 35.0849 16.4264 34.8513 15.7168 34.3838C15.0154 33.9245 14.4686 33.273 14.0762 32.4297C13.6921 31.5948 13.5 30.6222 13.5 29.5117V24.8271H22.8936V29.5117ZM15.8047 29.7119C15.8047 30.2714 15.9007 30.7559 16.0928 31.165C16.2931 31.5823 16.5728 31.9035 16.9316 32.1289C17.2906 32.3543 17.7122 32.4677 18.1963 32.4678C18.6889 32.4678 19.1112 32.3544 19.4619 32.1289C19.8207 31.9035 20.0961 31.5823 20.2881 31.165C20.4885 30.7559 20.5889 30.2714 20.5889 29.7119V27.4072H15.8047V29.7119ZM29.0264 19.1025C30.0618 19.1025 30.9555 19.2618 31.707 19.5791C32.4584 19.8964 33.0642 20.3299 33.5234 20.8809C33.9827 21.432 34.2785 22.0714 34.4121 22.7979H31.7949C31.7114 22.4806 31.5401 22.2088 31.2812 21.9834C31.0308 21.7496 30.7132 21.5739 30.3291 21.457C29.9534 21.3319 29.5232 21.2695 29.0391 21.2695C28.4547 21.2696 27.9492 21.3743 27.5234 21.583C27.0978 21.7834 26.7679 22.0881 26.5342 22.4971C26.3004 22.8978 26.1836 23.3989 26.1836 24C26.1836 24.6095 26.3091 25.1235 26.5596 25.541C26.81 25.9583 27.165 26.2708 27.624 26.4795C28.0916 26.6882 28.6384 26.793 29.2646 26.793C29.8742 26.793 30.4133 26.71 30.8809 26.543C31.3483 26.3676 31.7196 26.1123 31.9951 25.7783C32.0261 25.7419 32.0549 25.7041 32.083 25.666H29.5156V23.8369H34.5V28.6973H32.6592L32.5342 27.4258C32.4774 27.4913 32.4199 27.5573 32.3584 27.6201C31.9743 28.0208 31.4897 28.3332 30.9053 28.5586C30.3291 28.784 29.6568 28.8975 28.8887 28.8975C28.154 28.8974 27.4651 28.7927 26.8223 28.584C26.1794 28.3669 25.6117 28.0493 25.1191 27.6318C24.635 27.2144 24.255 26.7012 23.9795 26.0918C23.7123 25.4823 23.5781 24.7849 23.5781 24C23.5781 23.2151 23.7166 22.5177 23.9922 21.9082C24.2677 21.2988 24.652 20.7856 25.1445 20.3682C25.6454 19.9508 26.221 19.6374 26.8721 19.4287C27.5316 19.2116 28.25 19.1026 29.0264 19.1025ZM18.3818 16.9102L22.8936 13.1904V16.4346L20.167 18.5459L22.8936 20.6299V23.8242L18.3809 20.1211L13.5 24.0869V20.8936L16.6084 18.4863L13.5 16.0713V12.915L18.3818 16.9102Z" fill="#2C2C2C"/>
</svg>
